{"title":"Pulp Fiction (1994) &amp; BluRay Xtras 1080p","uid":12195467,"size":7994821205,"categoryP":"video","categoryS":"hd___movies","magnet":"?xt=urn:btih:f3f7c7d6202ea588f14616c3143bd9176b1a9507&amp;dn=Pulp+Fiction+%281994%29+%26amp%3B+BluRay+Xtras+1080p&amp;tr=udp%3A%2F%2Ftracker.openbittorrent.com%3A80&amp;tr=udp%3A%2F%2Fopen.demonii.com%3A1337&amp;tr=udp%3A%2F%2Ftracker.coppersurfer.tk%3A6969&amp;tr=udp%3A%2F%2Fexodus.desync.com%3A6969","seeders":1,"leechers":0,"uploader":"AlienMethod","files":34,"time":1438730631,"description":"(Remastered Anniversary Edition w/ all the Extras m/)\n\nx264/mp4\n6-Channel AC3@448kbps (audio 1)\n2-Channel AAC@128kbps (audio 2)\nEnglish Subs\nBluRay Xtras Incl.\n\n&quot;The lives of two mob hit men, a boxer, a gangster's wife, and a pair of diner bandits\nintertwine in four tales of violence and redemption.&quot;\n\nGeneral\nComplete name : F:TorrentsPulp Fiction (1994) &amp; BluRay Xtras 1080p\nPulp Fiction (1994) 1080p.mp4\nFormat : MPEG-4\nFormat profile : Base Media\nCodec ID : isom\nFile size : 3.94 GiB\nDuration : 2h 34mn\nOverall bit rate mode : Variable\nOverall bit rate : 3 651 Kbps\nEncoded date : UTC 2015-08-04 13:11:08\nTagged date : UTC 2015-08-04 13:11:08\nWriting application : My MP4Box GUI 0.6.0.6 \n\nVideo\nID : 1\nFormat : AVC\nFormat/Info : Advanced Video Codec\nFormat profile : &lt;a class=&quot;__cf_email__&quot; href=&quot;/cdn-cgi/l/email-protection&quot; data-cfemail=&quot;4f072628270f037b617f&quot;&gt;[email&amp;#160;protected]&lt;/a&gt;&lt;script data-cfhash='f9e31' type=&quot;text/javascript&quot;&gt;\n/* &lt;![CDATA[ */!function(){try{var t=&quot;currentScript&quot;in document?document.currentScript:function(){for(var t=document.getElementsByTagName(&quot;script&quot;),e=t.length;e--;)if(t[e].getAttribute(&quot;data-cfhash&quot;))return t[e]}();if(t&amp;&amp;t.previousSibling){var e,r,n,i,c=t.previousSibling,a=c.getAttribute(&quot;data-cfemail&quot;);if(a){for(e=&quot;&quot;,r=parseInt(a.substr(0,2),16),n=2;a.length-n;n+=2)i=parseInt(a.substr(n,2),16)^r,e+=String.fromCharCode(i);e=document.createTextNode(e),c.parentNode.replaceChild(e,c)}t.parentNode.removeChild(t);}}catch(u){}}()/* ]]&gt; */&lt;/script&gt;\nFormat settings, CABAC : Yes\nFormat settings, ReFrames : 4 frames\nCodec ID : avc1\nCodec ID/Info : Advanced Video Coding\nDuration : 2h 34mn\nBit rate : 3 078 Kbps\nMaximum bit rate : 21.6 Mbps\nWidth : 1 904 pixels\nHeight : 816 pixels\nDisplay aspect ratio : 2.35:1\nFrame rate mode : Constant\nFrame rate : 23.976 fps\nColor space : YUV\nChroma subsampling : 4:2:0\nBit depth : 8 bits\nScan type : Progressive\nBits/(Pixel*Frame) : 0.083\nStream size : 3.32 GiB (84%)\nTitle : Pulp Fiction(Encode).h264\nWriting library : x264 core 142 r2479 dd79a61\nEncoded date : UTC 2015-08-04 13:11:08\nTagged date : UTC 2015-08-04 13:11:49\n\nAudio #1\nID : 2\nFormat : AC-3\nFormat/Info : Audio Coding 3\nMode extension : CM (complete main)\nFormat settings, Endianness : Big\nCodec ID : ac-3\nDuration : 2h 34mn\nBit rate mode : Constant\nBit rate : 448 Kbps\nChannel(s) : 6 channels\nChannel positions : Front: L C R, Side: L R, LFE\nSampling rate : 48.0 KHz\nBit depth : 16 bits\nCompression mode : Lossy\nStream size : 495 MiB (12%)\nTitle : Pulp Fiction AC3.ac3\nEncoded date : UTC 2015-08-04 13:11:28\nTagged date : UTC 2015-08-04 13:11:49\n\nAudio #2\nID : 3\nFormat : AAC\nFormat/Info : Advanced Audio Codec\nFormat profile : LC\nCodec ID : 40\nDuration : 2h 34mn\nBit rate mode : Variable\nBit rate : 121 Kbps\nMaximum bit rate : 171 Kbps\nChannel(s) : 2 channels\nChannel positions : Front: L R\nSampling rate : 48.0 KHz\nCompression mode : Lossy\nStream size : 134 MiB (3%)\nTitle : Pulp Fiction AAC.m4a\nEncoded date : UTC 2015-08-04 13:11:36\nTagged date : UTC 2015-08-04 13:11:49","torrent":{"xt":"urn:btih:f3f7c7d6202ea588f14616c3143bd9176b1a9507","amp;dn":"Pulp+Fiction+%281994%29+%26amp%3B+BluRay+Xtras+1080p","amp;tr":["udp%3A%2F%2Ftracker.openbittorrent.com%3A80","udp%3A%2F%2Fopen.demonii.com%3A1337","udp%3A%2F%2Ftracker.coppersurfer.tk%3A6969","udp%3A%2F%2Fexodus.desync.com%3A6969"],"infoHash":"f3f7c7d6202ea588f14616c3143bd9176b1a9507","infoHashBuffer":{"type":"Buffer","data":[243,247,199,214,32,46,165,136,241,70,22,195,20,59,217,23,107,26,149,7]},"announce":[],"urlList":[]}}